<?xml version="1.0" encoding="UTF-8" standalone="no"?>
<!DOCTYPE svg PUBLIC "-//W3C//DTD SVG 1.1//EN" "http://www.w3.org/Graphics/SVG/1.1/DTD/svg11.dtd">
<svg width="100%" height="100%" viewBox="0 0 128 128" version="1.1" xmlns="http://www.w3.org/2000/svg" xmlns:xlink="http://www.w3.org/1999/xlink" xml:space="preserve" xmlns:serif="http://www.serif.com/" style="fill-rule:evenodd;clip-rule:evenodd;">
    <path d="M126,16C126,8.273 119.727,2 112,2L16,2C8.273,2 2,8.273 2,16L2,112C2,119.727 8.273,126 16,126L112,126C119.727,126 126,119.727 126,112L126,16Z" style="fill:rgb(99,36,30);stroke:rgb(63,14,11);stroke-width:4px;"/>
    <g transform="matrix(0.101,0,0,0.101,12.322,12.322)">
        <g>
            <path d="M105,673L105,706C376.333,942 647.667,942 919,706L919,673L105,673Z" style="fill:rgb(255,166,0);fill-rule:nonzero;"/>
            <path d="M105,673L257,687C265,687.667 270,692.333 272,701L276,768L408,778L416,717C417.333,709.667 422.333,704.667 431,702L593,702C601.667,704.667 606.667,709.667 608,717L616,778L748,768L752,701C754,692.333 759,687.667 767,687L919,673L919,427C939,401 957.667,374 975,346C951.667,306.667 924,270.667 892,238C863.333,251.333 836,267 810,285C783.333,260.333 754,239 722,221C726.667,187 729.333,153 730,119C690.667,100.333 649.667,86.333 607,77C589.667,105.667 574.333,135.333 561,166C528.333,161.333 495.667,161.333 463,166C449.667,135.333 434.333,105.667 417,77C374.333,86.333 333.333,100.333 294,119C294.667,153 297.333,187 302,221C270,239 240.667,260.333 214,285C188,267 160.667,251.333 132,238C100,270.667 72.333,306.667 49,346C66.333,374 85,401 105,427L105,673ZM105,706L105,745C105,1021 918,1021 919,745L919,706L785,718L780,787C778.667,793.667 774,798 766,800L604,811C596,811 590.667,807.333 588,800L578,735L446,735L436,800C433.333,807.333 428,811 420,811L258,800C250,798 245.333,793.667 244,787L239,718L105,706Z" style="fill:rgb(176,52,42);fill-rule:nonzero;"/>
            <path d="M483,600C483,634 541,634 541,600L541,514C541,480 483,480 483,514L483,600Z" style="fill:rgb(255,166,0);fill-rule:nonzero;"/>
            <circle cx="725" cy="526" r="90" style="fill:rgb(255,166,0);"/>
            <circle cx="299" cy="526" r="90" style="fill:rgb(255,166,0);"/>
        </g>
        <g>
            <circle cx="307" cy="532" r="60" style="fill:rgb(255,251,197);"/>
            <circle cx="717" cy="532" r="60" style="fill:rgb(255,251,197);"/>
        </g>
    </g>
    <g transform="matrix(2.14731,0,0,2.14731,-1.64526,-1.38626)">
        <path d="M23.05,8.9L23.1,8.9C24.8,10.633 25.75,12.667 25.95,15L27,15C27.267,15 27.5,15.1 27.7,15.3L28,16L27.7,16.7C27.5,16.9 27.267,17 27,17L25.95,17C25.75,19.3 24.783,21.317 23.05,23.05C21.317,24.783 19.3,25.75 17,25.95L17,27L16.7,27.7L16,28L15.3,27.7C15.1,27.5 15,27.267 15,27L15,25.95C12.667,25.75 10.633,24.8 8.9,23.1L8.9,23.05C7.2,21.317 6.25,19.3 6.05,17L5,17C4.733,17 4.5,16.9 4.3,16.7C4.1,16.5 4,16.267 4,16C4,15.733 4.1,15.5 4.3,15.3C4.5,15.1 4.733,15 5,15L6.05,15C6.25,12.667 7.2,10.633 8.9,8.9C10.633,7.2 12.667,6.25 15,6.05L15,5C15,4.733 15.1,4.5 15.3,4.3C15.5,4.1 15.733,4 16,4C16.267,4 16.5,4.1 16.7,4.3L17,5L17,6.05C19.3,6.25 21.317,7.2 23.05,8.9M21.65,10.35L21.65,10.3C20.317,9 18.767,8.25 17,8.05L17,9L16.7,9.7L16,10L15.3,9.7C15.1,9.5 15,9.267 15,9L15,8.05C13.233,8.25 11.683,9 10.35,10.3L10.3,10.35C9,11.683 8.25,13.233 8.05,15L9,15C9.267,15 9.5,15.1 9.7,15.3L10,16L9.7,16.7C9.5,16.9 9.267,17 9,17L8.05,17C8.25,18.767 9,20.317 10.3,21.65L10.35,21.65C11.683,22.983 13.233,23.75 15,23.95L15,23C15,22.733 15.1,22.5 15.3,22.3C15.5,22.1 15.733,22 16,22C16.267,22 16.5,22.1 16.7,22.3L17,23L17,23.95C18.767,23.75 20.317,22.983 21.65,21.65C22.983,20.317 23.75,18.767 23.95,17L23,17C22.733,17 22.5,16.9 22.3,16.7C22.1,16.5 22,16.267 22,16C22,15.733 22.1,15.5 22.3,15.3C22.5,15.1 22.733,15 23,15L23.95,15C23.75,13.233 22.983,11.683 21.65,10.35" style="fill:rgb(63,14,11);fill-rule:nonzero;"/>
    </g>
    <g transform="matrix(2.14731,0,0,2.14731,-3.20127,-2.94227)">
        <path d="M23.05,8.9L23.1,8.9C24.8,10.633 25.75,12.667 25.95,15L27,15C27.267,15 27.5,15.1 27.7,15.3L28,16L27.7,16.7C27.5,16.9 27.267,17 27,17L25.95,17C25.75,19.3 24.783,21.317 23.05,23.05C21.317,24.783 19.3,25.75 17,25.95L17,27L16.7,27.7L16,28L15.3,27.7C15.1,27.5 15,27.267 15,27L15,25.95C12.667,25.75 10.633,24.8 8.9,23.1L8.9,23.05C7.2,21.317 6.25,19.3 6.05,17L5,17C4.733,17 4.5,16.9 4.3,16.7C4.1,16.5 4,16.267 4,16C4,15.733 4.1,15.5 4.3,15.3C4.5,15.1 4.733,15 5,15L6.05,15C6.25,12.667 7.2,10.633 8.9,8.9C10.633,7.2 12.667,6.25 15,6.05L15,5C15,4.733 15.1,4.5 15.3,4.3C15.5,4.1 15.733,4 16,4C16.267,4 16.5,4.1 16.7,4.3L17,5L17,6.05C19.3,6.25 21.317,7.2 23.05,8.9M21.65,10.35L21.65,10.3C20.317,9 18.767,8.25 17,8.05L17,9L16.7,9.7L16,10L15.3,9.7C15.1,9.5 15,9.267 15,9L15,8.05C13.233,8.25 11.683,9 10.35,10.3L10.3,10.35C9,11.683 8.25,13.233 8.05,15L9,15C9.267,15 9.5,15.1 9.7,15.3L10,16L9.7,16.7C9.5,16.9 9.267,17 9,17L8.05,17C8.25,18.767 9,20.317 10.3,21.65L10.35,21.65C11.683,22.983 13.233,23.75 15,23.95L15,23C15,22.733 15.1,22.5 15.3,22.3C15.5,22.1 15.733,22 16,22C16.267,22 16.5,22.1 16.7,22.3L17,23L17,23.95C18.767,23.75 20.317,22.983 21.65,21.65C22.983,20.317 23.75,18.767 23.95,17L23,17C22.733,17 22.5,16.9 22.3,16.7C22.1,16.5 22,16.267 22,16C22,15.733 22.1,15.5 22.3,15.3C22.5,15.1 22.733,15 23,15L23.95,15C23.75,13.233 22.983,11.683 21.65,10.35" style="fill:rgb(255,251,197);fill-rule:nonzero;"/>
    </g>
</svg>
